<svg width="25" height="25" viewBox="0 0 25 25" fill="none" xmlns="http://www.w3.org/2000/svg">
<path d="M8.20852 5.71615L8.20923 5.7156C8.77741 5.28495 9.42258 4.96747 10.1096 4.77995C10.0953 4.52147 10.1278 4.26215 10.2059 4.01457C10.2971 3.72525 10.4486 3.45851 10.6503 3.23189C10.852 3.00527 11.0994 2.82391 11.3762 2.69971C11.653 2.57552 11.9529 2.51132 12.2563 2.51132C12.5597 2.51132 12.8597 2.57552 13.1365 2.69971C13.4133 2.82391 13.6607 3.00527 13.8624 3.23189C14.0641 3.45851 14.2155 3.72525 14.3068 4.01457C14.3849 4.26214 14.4174 4.52144 14.4031 4.77992C15.0904 4.96732 15.736 5.28481 16.3044 5.7156L16.3052 5.7162C17.3116 6.48953 17.8908 7.52346 18.2312 8.54562C18.5691 9.5585 18.6902 10.6103 18.7485 11.4878C18.7485 11.4878 18.7485 11.4879 18.7485 11.4879L18.5988 11.4979C18.6228 11.8529 18.6378 12.1938 18.6498 12.4948L8.20852 5.71615ZM8.20852 5.71615C7.20202 6.48852 6.62292 7.52351 6.28156 8.54549L6.28151 8.54566C5.94454 9.55856 5.82348 10.6103 5.76418 11.4878L5.76415 11.4882C5.74104 11.8449 5.72598 12.1882 5.71397 12.4885C5.71396 12.4886 5.71396 12.4887 5.71396 12.4888L5.70498 12.6901L5.70497 12.6906C5.68995 13.052 5.67413 13.3145 5.6482 13.5056L5.64816 13.5059C5.45192 14.9721 5.21115 15.9821 4.87459 16.7814C4.5463 17.5587 4.10636 18.1829 3.44377 18.8454L3.44376 18.8455C3.28298 19.0063 3.17349 19.2112 3.12913 19.4342C3.08478 19.6572 3.10755 19.8884 3.19458 20.0985C3.2816 20.3086 3.42896 20.4882 3.61803 20.6145C3.8071 20.7409 4.02939 20.8084 4.2568 20.8084H4.25684H10.2812C10.1661 21.0761 10.1062 21.3652 10.1063 21.6583C10.1065 22.0356 10.2059 22.4063 10.3946 22.733C10.5834 23.0597 10.8548 23.331 11.1815 23.5196C11.5083 23.7082 11.879 23.8075 12.2563 23.8075C12.6337 23.8075 13.0043 23.7082 13.3311 23.5196C13.6579 23.331 13.9293 23.0597 14.118 22.733C14.3068 22.4063 14.4062 22.0356 14.4063 21.6583C14.4064 21.3652 14.3466 21.0761 14.2315 20.8084H20.2568H20.2569C20.4843 20.8084 20.7066 20.7409 20.8956 20.6145C21.0847 20.4882 21.2321 20.3086 21.3191 20.0985C21.4061 19.8884 21.4289 19.6572 21.3845 19.4342C21.3402 19.2112 21.2307 19.0063 21.0699 18.8455L21.0699 18.8454C20.4086 18.1841 19.9685 17.555 19.639 16.7743C19.3005 15.972 19.0597 14.9621 18.8655 13.5059L18.8655 13.5055C18.8395 13.3154 18.8237 13.0521 18.8087 12.6916L18.8087 12.6912L18.7997 12.4888C18.7997 12.4888 18.7997 12.4887 18.7997 12.4886L8.20852 5.71615ZM17.9294 18.5085H6.58662C6.73448 18.2444 6.8693 17.9683 6.99298 17.676L6.993 17.676C7.44551 16.6052 7.72075 15.3643 7.92851 13.8117L7.92854 13.8117L7.92885 13.8089C7.96786 13.4707 7.99251 13.1309 8.00273 12.7905L8.01268 12.5758L8.01272 12.5748C8.02471 12.2749 8.03765 11.9667 8.0595 11.6419L8.05951 11.6418C8.1132 10.8324 8.21815 10.0094 8.46412 9.27247C8.70775 8.5446 9.06964 7.95464 9.60918 7.54005L17.9294 18.5085ZM17.9294 18.5085C17.7801 18.2416 17.6437 17.9626 17.5196 17.6679C17.0672 16.5953 16.7919 15.3554 16.5852 13.8117L16.5851 13.8115C16.5441 13.503 16.526 13.1397 16.511 12.7905C16.511 12.7904 16.511 12.7903 16.511 12.7902M17.9294 18.5085L16.511 12.7902M16.511 12.7902L16.501 12.5748L16.501 12.5738C16.489 12.2749 16.476 11.9667 16.4542 11.6419L16.4542 11.6418C16.4005 10.8324 16.2955 10.0094 16.0496 9.27247L16.0495 9.27242C15.807 8.54476 15.4441 7.95472 14.9045 7.54005L16.511 12.7902ZM12.2568 6.80911C10.9548 6.80911 10.1419 7.13109 9.60923 7.54001L12.2568 6.80911ZM12.2568 6.80911C13.5588 6.80911 14.3718 7.13109 14.9044 7.54001L12.2568 6.80911Z" fill="white" stroke="white" stroke-width="0.3"/>
</svg>
