<svg width="25" height="25" viewBox="0 0 25 25" fill="none" xmlns="http://www.w3.org/2000/svg">
<path d="M3.37295 5.77426C3.13853 6.00868 3.00684 6.32662 3.00684 6.65814C3.00684 6.98966 3.13853 7.3076 3.37295 7.54203C3.60737 7.77645 3.92532 7.90814 4.25684 7.90814H20.2568C20.5884 7.90814 20.9063 7.77645 21.1407 7.54203C21.3751 7.3076 21.5068 6.98966 21.5068 6.65814C21.5068 6.32662 21.3751 6.00868 21.1407 5.77426C20.9063 5.53984 20.5884 5.40814 20.2568 5.40814H4.25684C3.92532 5.40814 3.60737 5.53984 3.37295 5.77426ZM6.37295 11.7743C6.13853 12.0087 6.00684 12.3266 6.00684 12.6581C6.00684 12.9897 6.13853 13.3076 6.37295 13.542C6.60737 13.7764 6.92531 13.9081 7.25684 13.9081H17.2568C17.5884 13.9081 17.9063 13.7764 18.1407 13.542C18.3751 13.3076 18.5068 12.9897 18.5068 12.6581C18.5068 12.3266 18.3751 12.0087 18.1407 11.7743C17.9063 11.5398 17.5884 11.4081 17.2568 11.4081H7.25684C6.92531 11.4081 6.60737 11.5398 6.37295 11.7743ZM9.37295 17.7743C9.13853 18.0087 9.00684 18.3266 9.00684 18.6581C9.00684 18.9897 9.13853 19.3076 9.37295 19.542C9.60737 19.7764 9.92532 19.9081 10.2568 19.9081H14.2568C14.5884 19.9081 14.9063 19.7764 15.1407 19.542C15.3751 19.3076 15.5068 18.9897 15.5068 18.6581C15.5068 18.3266 15.3751 18.0087 15.1407 17.7743C14.9063 17.5398 14.5884 17.4081 14.2568 17.4081H10.2568C9.92532 17.4081 9.60737 17.5398 9.37295 17.7743Z" fill="white" stroke="white" stroke-width="0.5"/>
</svg>
